<svg width="18" height="18" viewBox="0 0 18 18" fill="none" xmlns="http://www.w3.org/2000/svg">
<g id="SearchIcon">
<path id="Union" fill-rule="evenodd" clip-rule="evenodd" d="M10.2988 7.64938C10.2988 9.1126 9.1126 10.2988 7.64938 10.2988C6.18617 10.2988 5 9.1126 5 7.64938C5 6.18617 6.18617 5 7.64938 5C9.1126 5 10.2988 6.18617 10.2988 7.64938ZM9.71792 10.6563C9.13002 11.0615 8.41741 11.2988 7.64938 11.2988C5.63388 11.2988 4 9.66488 4 7.64938C4 5.63388 5.63388 4 7.64938 4C9.66488 4 11.2988 5.63388 11.2988 7.64938C11.2988 8.41742 11.0615 9.13004 10.6563 9.71795L14 13.0617L13.0616 14L9.71792 10.6563Z" fill="#38383C"/>
</g>
</svg>
