<svg width="18" height="18" viewBox="0 0 18 18" fill="none" xmlns="http://www.w3.org/2000/svg">
<g id="SettingsIcon">
<path id="Union" fill-rule="evenodd" clip-rule="evenodd" d="M14.3017 11.8118C14.4786 11.4789 14.6251 11.1274 14.7374 10.761C14.2341 10.6525 13.8899 10.174 13.9577 9.65431C13.9801 9.48211 13.9939 9.30689 13.9984 9.12905C13.9987 9.11377 13.9991 9.09847 13.9993 9.08315C13.9998 9.05549 14 9.02777 14 9C14 8.9539 13.9994 8.90795 13.9981 8.86215C13.9981 8.86203 13.9981 8.86192 13.9981 8.8618C13.9934 8.6871 13.9798 8.51493 13.9577 8.34569C13.8899 7.82598 14.2341 7.34751 14.7374 7.23899C14.6251 6.87255 14.4786 6.52105 14.3017 6.18818C13.8689 6.46748 13.2869 6.37233 12.9675 5.95662C12.8675 5.82659 12.7614 5.7016 12.6494 5.58211C12.6394 5.57146 12.6294 5.56086 12.6193 5.5503C12.5376 5.46461 12.4529 5.38183 12.3654 5.30211C12.3625 5.29949 12.3596 5.29687 12.3568 5.29426C12.2559 5.20287 12.1514 5.11554 12.0434 5.03252C11.6277 4.71306 11.5325 4.13111 11.8118 3.6983C11.4789 3.52139 11.1274 3.37492 10.761 3.26258C10.6525 3.7659 10.174 4.1101 9.6543 4.04231C9.46731 4.01792 9.27675 4.00382 9.08315 4.00067C9.07697 4.00057 9.07079 4.00048 9.06461 4.00041C9.0431 4.00013 9.02156 4 8.99999 4C8.96781 4 8.93571 4.0003 8.90367 4.00091C8.9036 4.00091 8.90353 4.00091 8.90346 4.00091C8.71445 4.00447 8.52836 4.01848 8.34568 4.04231C7.82598 4.1101 7.3475 3.7659 7.23898 3.26258C6.87255 3.37492 6.52104 3.52139 6.18818 3.6983C6.46747 4.13111 6.37232 4.71306 5.95661 5.03252C5.78324 5.16575 5.61883 5.31009 5.46446 5.46446C5.43616 5.49275 5.40821 5.52138 5.3806 5.55034C5.25755 5.6794 5.14132 5.81502 5.03251 5.95662C4.71306 6.37233 4.13111 6.46748 3.69829 6.18818C3.52138 6.52105 3.37491 6.87255 3.26257 7.23899C3.7659 7.34751 4.11009 7.82598 4.0423 8.34569C4.01791 8.53268 4.00381 8.72324 4.00066 8.91684C4.00056 8.92302 4.00048 8.92919 4.0004 8.93537C4.00013 8.95688 3.99999 8.97842 3.99999 9C3.99999 9.03158 4.00028 9.06309 4.00087 9.09452C4.00087 9.09459 4.00086 9.09466 4.00087 9.09472C4.00437 9.28435 4.0184 9.47104 4.0423 9.65431C4.11009 10.174 3.7659 10.6525 3.26257 10.761C3.37491 11.1274 3.52138 11.4789 3.69829 11.8118C4.13111 11.5325 4.71306 11.6277 5.03251 12.0434C5.13243 12.1734 5.2386 12.2984 5.35057 12.4179C5.36055 12.4285 5.37058 12.4391 5.38065 12.4497C5.46321 12.5363 5.54885 12.6199 5.6374 12.7004C5.63783 12.7008 5.63826 12.7012 5.63868 12.7016C5.7409 12.7945 5.84696 12.8832 5.95661 12.9675C6.37232 13.2869 6.46748 13.8689 6.18818 14.3017C6.52104 14.4786 6.87255 14.6251 7.23898 14.7374C7.3475 14.2341 7.82598 13.8899 8.34568 13.9577C8.51788 13.9801 8.6931 13.9939 8.87094 13.9984C8.88622 13.9988 8.90152 13.9991 8.91683 13.9993C8.9445 13.9998 8.97222 14 8.99999 14C9.04609 14 9.09204 13.9994 9.13784 13.9981C9.13796 13.9981 9.13807 13.9981 9.13819 13.9981C9.31289 13.9934 9.48506 13.9798 9.6543 13.9577C10.174 13.8899 10.6525 14.2341 10.761 14.7374C11.1274 14.6251 11.4789 14.4786 11.8118 14.3017C11.5325 13.8689 11.6277 13.2869 12.0434 12.9675C12.1734 12.8676 12.2984 12.7614 12.4179 12.6494C12.4285 12.6394 12.4391 12.6294 12.4497 12.6193C12.5363 12.5368 12.6199 12.4511 12.7004 12.3626C12.7008 12.3622 12.7012 12.3617 12.7016 12.3613C12.7945 12.2591 12.8832 12.153 12.9675 12.0434C13.2869 11.6277 13.8689 11.5325 14.3017 11.8118ZM13 9C13 11.2091 11.2091 13 8.99999 13C6.79085 13 4.99999 11.2091 4.99999 9C4.99999 6.79086 6.79085 5 8.99999 5C11.2091 5 13 6.79086 13 9Z" fill="#38383C"/>
</g>
</svg>
