<svg width="18" height="18" viewBox="0 0 18 18" fill="none" xmlns="http://www.w3.org/2000/svg">
<g id="SoundIcon">
<g id="Group 11">
<g id="Group 10">
<g id="Group 9">
<g id="Group 8">
<path id="Polygon 4" d="M6 9L8 7V11L6 9Z" fill="#38383C"/>
<rect id="Rectangle 36" x="6" y="8" width="1" height="2" fill="#38383C"/>
</g>
</g>
<g id="Rectangle 37">
<path d="M9 8H9.5C9.5 8 10 8.42824 10 9C10 9.57176 9.5 10 9.5 10H9C9 10 9.5 9.5 9.5 9C9.5 8.5 9 8 9 8Z" fill="#38383C"/>
<path d="M9.5 7H10C10 7 11 7.5 11 9C11 10.5 10 11 10 11H9.5C9.5 11 10.5 10.5 10.5 9C10.5 7.5 9.5 7 9.5 7Z" fill="#38383C"/>
<path d="M10 6H10.5C10.5 6 12 7 12 9C12 11 10.5 12 10.5 12H10C10 12 11.5 11 11.5 9C11.5 7 10 6 10 6Z" fill="#38383C"/>
</g>
</g>
</g>
</g>
</svg>
